<?xml version="1.0" encoding="utf-8"?>
<!-- Generator: Adobe Illustrator 14.0.0, SVG Export Plug-In . SVG Version: 6.00 Build 43363)  -->
<!DOCTYPE svg PUBLIC "-//W3C//DTD SVG 1.1//EN" "http://www.w3.org/Graphics/SVG/1.1/DTD/svg11.dtd">
<svg version="1.1" xmlns="http://www.w3.org/2000/svg" xmlns:xlink="http://www.w3.org/1999/xlink" x="0px" y="0px" width="504px"
	 height="504px" viewBox="0 0 504 504" enable-background="new 0 0 504 504" xml:space="preserve">
<g id="Layer_2">
	<path d="M251.995,410.5c7.667-18.334,12-51.333,12-51.333c49.333,10,81.333,77.332,81.333,77.332
		c38.333-13.666,44.333-53.334,44.333-53.334c2-11,5.665-24.333,5.665-24.333c5-23.333,18-37.333,18-37.333
		c8.666-12,32.332-26.333,32.332-26.333c-73.334-51.334-122.333-22-122.333-22c62.334-34.667,98.333-3.333,98.333-3.333
		c13.667-22,3.667-62,3.667-62c-3.666-11.333-1.667-28.334-1.667-28.334c6.333-48,62.842-109.067,62.842-109.067
		C325,108.03,260,225.833,260,225.833c3.5-76,15.5-96.5,15.5-96.5c22.5,3,13-16,13-16c-16-9.5-19.5,11-19.5,11
		c-18.5,55.5-16,114-16,114h-3.173c0,0,2.5-58.5-16-114c0,0-3.5-20.5-19.5-11c0,0-9.5,19,13,16c0,0,12,20.5,15.5,96.5
		c0,0-65-117.803-226.5-155.401c0,0,56.509,61.067,62.842,109.067c0,0,1.999,17.001-1.667,28.334c0,0-10,40,3.667,62
		c0,0,35.999-31.334,98.333,3.334c0,0-48.999-29.335-122.333,22c0,0,23.666,14.332,32.332,26.332c0,0,13,14,18,37.334
		c0,0,3.665,13.332,5.665,24.332c0,0,6,39.668,44.333,53.334c0,0,32-67.332,81.333-77.332c0,0,4.334,33,12.001,51.334L251.995,410.5
		z"/>
</g>
<g id="Layer_3">
	<path fill="#BDD630" d="M431.001,112.668c0,0-21.666,31-23.333,72c0,0-1.334,16.333,4.666,26.667c0,0,10.334,22.334-2.333,37.333
		c0,0-72-23.335-116,44.665c0,0,61.997-41.333,125.663,0.333c0,0-34.334,24.334-39.667,54c0,0-0.667,37-26,55
		c0,0-31.334-47.668-88.334-56.334c0,0,4.333-22.666,2.666-40.333c0,0-27-34.001,3-76.334
		C271.329,229.665,317.002,145.67,431.001,112.668z"/>
	<path fill="#BDD630" d="M74.685,113.165c0,0,21.666,31,23.333,72c0,0,1.334,16.333-4.666,26.667c0,0-10.334,22.334,2.333,37.333
		c0,0,72-23.335,116,44.665c0,0-61.997-41.333-125.663,0.332c0,0,34.334,24.334,39.667,54c0,0,0.667,37,26,55
		c0,0,31.334-47.668,88.334-56.334c0,0-4.333-22.666-2.666-40.332c0,0,27-34.002-3-76.334
		C234.357,230.162,188.684,146.167,74.685,113.165z"/>
</g>
<g id="Layer_4">
	<path fill="#47B649" d="M275.5,239c0,0,48.5-75.5,124-102.5c0,0-15,42.5-6.5,51.5C393,188,351.332,173,275.5,239z"/>
	<path fill="#47B649" d="M305.5,298.5c0,0,46.5-25,91-4c0,0-14.5,12-19.5,25C377,319.5,373.5,284.5,305.5,298.5z"/>
	<path fill="#47B649" d="M229.5,236c0,0-48.5-75.5-124-102.5c0,0,15,42.5,6.5,51.5C112,185,153.668,170,229.5,236z"/>
	<path fill="#47B649" d="M199.5,295.5c0,0-46.5-25-91-4c0,0,14.5,12,19.5,25C128,316.5,131.5,281.5,199.5,295.5z"/>
</g>
</svg>
