<?xml version="1.0" encoding="UTF-8" standalone="no"?>
<!-- Created with Inkscape (http://www.inkscape.org/) -->

<svg
   xmlns:dc="http://purl.org/dc/elements/1.1/"
   xmlns:cc="http://creativecommons.org/ns#"
   xmlns:rdf="http://www.w3.org/1999/02/22-rdf-syntax-ns#"
   xmlns:svg="http://www.w3.org/2000/svg"
   xmlns="http://www.w3.org/2000/svg"
   xmlns:sodipodi="http://sodipodi.sourceforge.net/DTD/sodipodi-0.dtd"
   xmlns:inkscape="http://www.inkscape.org/namespaces/inkscape"
   width="744.09448819"
   height="1052.3622047"
   id="svg2"
   version="1.1"
   inkscape:version="0.47 r22583"
   sodipodi:docname="New document 1">
  <defs
     id="defs4">
    <inkscape:perspective
       sodipodi:type="inkscape:persp3d"
       inkscape:vp_x="0 : 526.18109 : 1"
       inkscape:vp_y="0 : 1000 : 0"
       inkscape:vp_z="744.09448 : 526.18109 : 1"
       inkscape:persp3d-origin="372.04724 : 350.78739 : 1"
       id="perspective10" />
    <inkscape:perspective
       id="perspective2884"
       inkscape:persp3d-origin="0.5 : 0.33333333 : 1"
       inkscape:vp_z="1 : 0.5 : 1"
       inkscape:vp_y="0 : 1000 : 0"
       inkscape:vp_x="0 : 0.5 : 1"
       sodipodi:type="inkscape:persp3d" />
  </defs>
  <sodipodi:namedview
     id="base"
     pagecolor="#ffffff"
     bordercolor="#666666"
     borderopacity="1.0"
     inkscape:pageopacity="0.0"
     inkscape:pageshadow="2"
     inkscape:zoom="0.35"
     inkscape:cx="375"
     inkscape:cy="520"
     inkscape:document-units="px"
     inkscape:current-layer="layer1"
     showgrid="false"
     inkscape:window-width="685"
     inkscape:window-height="720"
     inkscape:window-x="1"
     inkscape:window-y="0"
     inkscape:window-maximized="0" />
  <metadata
     id="metadata7">
    <rdf:RDF>
      <cc:Work
         rdf:about="">
        <dc:format>image/svg+xml</dc:format>
        <dc:type
           rdf:resource="http://purl.org/dc/dcmitype/StillImage" />
        <dc:title></dc:title>
      </cc:Work>
    </rdf:RDF>
  </metadata>
  <g
     inkscape:label="Layer 1"
     inkscape:groupmode="layer"
     id="layer1">
    <path
       style="fill:#000000"
       d="m 206.95748,317.8979 0.2568,-69.75 160.75,-0.25304 c 117.19553,-0.18448 160.75,0.0475 160.75,0.85608 0,0.61002 -1.22231,2.07388 -2.71625,3.25304 -2.17435,1.71621 -4.51842,2.24367 -11.74976,2.64392 l -9.03351,0.5 0.32151,3.69357 c 0.3918,4.5009 -2.45629,11.23712 -6.42507,15.19643 -3.91417,3.90482 -8.78357,5.81699 -15.50263,6.08773 -6.80845,0.27435 -7.46784,0.64003 -8.25549,4.57828 -0.85831,4.29155 -5.3915,10.32054 -10.02626,13.3346 -9.66956,6.28826 -26.15747,3.49032 -22.804,-3.86975 1.04764,-2.29931 1.61712,-2.46642 8.19515,-2.40483 7.97446,0.0747 10.8941,-1.26044 14.04031,-6.42036 3.92025,-6.42939 1.49382,-15.81483 -4.95012,-19.14712 -4.9609,-2.56539 -12.80075,-1.98921 -18.59388,1.36653 -6.65503,3.855 -11.81208,9.15183 -23.22371,23.85315 -5.23764,6.74752 -11.80968,14.32417 -14.60454,16.83698 -9.01559,8.1058 -20.19206,12.19858 -29.7295,10.88685 -6.39645,-0.87974 -17.26023,-6.25935 -23.20159,-11.48914 -5.35275,-4.71168 -8.28626,-5.31289 -7.32984,-1.50223 3.18829,12.70319 -0.25906,23.10908 -6.38779,19.28162 -1.11267,-0.69487 -2.04969,-1.49266 -2.08228,-1.77286 -0.0326,-0.2802 -0.14739,-3.88445 -0.25512,-8.00945 -0.1492,-5.71271 -0.67127,-8.1403 -2.19075,-10.18688 -4.90991,-6.6131 -16.78023,-7.77005 -22.62769,-2.20542 -1.67162,1.59076 -3.49104,3.72581 -4.04315,4.74455 -0.55303,1.02041 -0.94915,8.07685 -0.88203,15.71247 0.067,7.62311 -0.29265,14.6646 -0.79923,15.64774 -0.50657,0.98315 -1.75844,3.5395 -2.78191,5.68078 -2.5913,5.42142 -9.80878,12.59462 -16.52817,16.42678 -3.11702,1.77767 -9.56861,4.18548 -14.33687,5.35068 -7.81838,1.91056 -9.35165,1.99666 -15.61697,0.87699 -15.52474,-2.77443 -27.12242,-12.01178 -34.98568,-27.86546 l -4.60681,-9.28815 -0.64319,4.69253 c -0.35375,2.58089 -0.64318,14.45128 -0.64318,26.37865 0,21.37527 -0.0332,21.71728 -2.31445,23.86043 -1.27295,1.19587 -2.85101,2.17431 -3.5068,2.17431 -0.91419,0 -1.13244,-16.27178 -0.93555,-69.75 z m 70.13328,36.80895 c 15.54862,-7.42067 22.52139,-23.19948 16.38255,-37.07237 -4.82245,-10.89805 -11.01099,-14.55431 -23.29962,-13.76567 -8.53581,0.5478 -10.45941,-0.24216 -10.45941,-4.29535 0,-3.29528 1.40903,-4.15634 8.84298,-5.40392 8.78137,-1.47372 16.70022,0.83938 26.36122,7.70012 1.45043,1.03002 2.2808,0.58567 5.57626,-2.98395 2.23479,-2.42072 6.37686,-5.30708 9.7958,-6.82611 5.19034,-2.30607 6.75944,-2.55552 12.67374,-2.01483 3.7125,0.3394 6.75,0.22966 6.75,-0.24387 0,-2.97621 -12.22648,-12.15041 -25.5,-19.13406 -19.96475,-10.50413 -45.93726,-7.20594 -62.84917,7.98106 -24.31564,21.83562 -21.95723,61.84279 4.49823,76.30603 5.77624,3.15787 8.43561,3.62533 17.69854,3.11098 5.47814,-0.3042 8.9203,-1.15859 13.52888,-3.35806 z M 390.347,306.37975 c 15.00692,-9.47345 15.1992,-29.57603 0.36808,-38.48185 -9.10249,-5.46588 -18.18298,-4.28108 -25.88716,3.3777 -3.91574,3.89266 -8.11364,2.57881 -8.11364,-2.53938 0,-1.76669 1.68301,-4.07798 5.67423,-7.79244 3.12082,-2.90442 5.33359,-5.62166 4.91727,-6.03832 -0.41632,-0.41666 -16.60437,-0.91254 -35.97343,-1.10197 -29.06923,-0.28429 -35.41681,-0.10302 -36.36417,1.03848 -0.93709,1.12913 0.53988,2.09444 8.04921,5.26076 15.66208,6.60392 25.18368,13.55451 46.53202,33.96749 13.60182,13.00587 18.9953,15.77852 29.67216,15.25367 5.43032,-0.26694 7.93406,-0.92951 11.12543,-2.94414 z M 227.69446,279.17101 c 5.9907,-7.76161 15.17063,-14.52762 26.03294,-19.18743 4.91767,-2.10962 8.95149,-4.1244 8.96405,-4.47727 0.0508,-1.42675 -5.63264,-1.81597 -25.57294,-1.75132 -12.83324,0.0416 -21.38685,0.46739 -22.15423,1.10279 -1.36557,1.1307 -1.79714,31.58894 -0.59003,41.64134 l 0.64259,5.35121 4.09872,-8.43738 c 2.25429,-4.64055 6.1148,-11.04943 8.5789,-14.24194 z m 191.92304,-4.99685 c 4.50089,-5.54744 8.60896,-9.09056 19.59678,-16.90179 1.1,-0.78199 1.65831,-1.7716 1.24068,-2.19912 -0.41763,-0.42753 -11.62925,-0.81063 -24.91472,-0.85134 -18.11964,-0.0555 -24.25709,0.22961 -24.56239,1.14111 -0.22384,0.66832 1.871,2.61678 4.65521,4.32992 6.54853,4.02936 11.60298,9.99905 13.62796,16.09567 1.10915,3.33934 2.15982,4.85929 3.35902,4.85929 0.95976,0 4.10862,-2.91318 6.99746,-6.47374 z m 70.35243,-4.77626 c 3.28061,-1.54491 6.74435,-7.49161 6.74435,-11.579 l 0,-3.05669 -12.75,-0.30716 c -15.07873,-0.36325 -19.25,-0.0126 -19.25,1.61826 0,0.66362 1.4625,2.57653 3.25,4.25089 1.7875,1.67436 4.72408,4.68216 6.52572,6.684 2.89867,3.22074 3.82535,3.6397 8.05064,3.6397 2.6262,0 5.96938,-0.5625 7.42929,-1.25 z"
       id="path2890" />
  </g>
</svg>
